<!DOCTYPE svg PUBLIC "-//W3C//DTD SVG 20010904//EN" "http://www.w3.org/TR/2001/REC-SVG-20010904/DTD/svg10.dtd">
<svg version="1.0" xmlns="http://www.w3.org/2000/svg" width="64px" height="64px" viewBox="0 0 640 640" preserveAspectRatio="xMidYMid meet">
<g id="layer101" fill="#d45500" stroke="none">
 <path d="M145 531 c-46 -31 -58 -75 -30 -118 21 -32 30 -22 44 47 7 30 19 62 27 71 26 29 1 29 -41 0z"/>
 <path d="M341 534 c-23 -29 -26 -50 -11 -88 10 -28 64 -60 86 -52 12 5 12 2 0 -22 -24 -47 -51 -64 -116 -71 -51 -6 -65 -12 -85 -37 -14 -16 -24 -32 -25 -36 0 -12 -35 -9 -48 4 -7 7 -12 24 -12 38 0 41 -11 43 -47 8 -47 -46 -46 -90 5 -138 20 -19 49 -51 63 -70 l27 -35 88 0 c49 0 106 4 127 8 46 10 106 62 143 125 25 42 28 58 30 142 0 52 4 103 9 113 11 27 -14 75 -49 93 -41 21 -115 44 -143 44 -12 0 -31 -12 -42 -26z m89 -119 c0 -3 -2 -5 -5 -5 -3 0 -5 2 -5 5 0 3 2 5 5 5 3 0 5 -2 5 -5z"/>
 </g>
<g id="layer102" fill="#deaa87" stroke="none">
 <path d="M186 549 c-33 -31 -38 -43 -56 -137 -26 -135 -26 -163 3 -190 33 -31 49 -28 85 17 28 35 36 39 87 43 46 4 61 10 90 38 18 18 39 46 46 62 10 25 9 32 -5 46 -17 16 -19 16 -29 1 -8 -14 -15 -15 -34 -6 -27 12 -40 65 -24 96 10 17 8 23 -12 36 -13 8 -44 18 -69 21 -42 6 -49 4 -82 -27z"/>
 </g>

</svg>